{
  "accessors": [
    {
      "bufferView": 1,
      "componentType": 5126,
      "count": 3834,
      "max": [
        1220.4720458984375,
        1220.4720458984375,
        118.11019897460938
      ],
      "min": [
        0,
        0,
        -0.39370080828666687
      ],
      "type": "VEC3"
    },
    {
      "bufferView": 1,
      "byteOffset": 46008,
      "componentType": 5126,
      "count": 3834,
      "max": [
        1,
        1,
        1
      ],
      "min": [
        -1,
        -1,
        -1
      ],
      "type": "VEC3"
    },
    {
      "bufferView": 0,
      "componentType": 5125,
      "count": 8097,
      "max": [
        3833
      ],
      "min": [
        0
      ],
      "type": "SCALAR"
    }
  ],
  "asset": {
    "extras": {
      "author": "Grandsloth (https://sketchfab.com/Grandsloth)",
      "license": "CC-BY-4.0 (http://creativecommons.org/licenses/by/4.0/)",
      "source": "https://sketchfab.com/models/8802b451d74f4eb2bb547cab14aeee07",
      "title": "Simple Maze"
    },
    "generator": "Sketchfab-3.18.7",
    "version": "2.0"
  },
  "bufferViews": [
    {
      "buffer": 0,
      "byteLength": 32388,
      "byteOffset": 0,
      "name": "floatBufferViews",
      "target": 34963
    },
    {
      "buffer": 0,
      "byteLength": 92016,
      "byteOffset": 32388,
      "byteStride": 12,
      "name": "floatBufferViews",
      "target": 34962
    }
  ],
  "buffers": [
    {
      "byteLength": 124404,
      "uri": "scene.bin"
    }
  ],
  "extensionsRequired": [
    "KHR_materials_pbrSpecularGlossiness"
  ],
  "extensionsUsed": [
    "KHR_materials_pbrSpecularGlossiness"
  ],
  "materials": [
    {
      "doubleSided": false,
      "extensions": {
        "KHR_materials_pbrSpecularGlossiness": {
          "diffuseFactor": [
            0.86482458200000001,
            0.86482458200000001,
            0.86482458200000001,
            1
          ],
          "glossinessFactor": 0.28752616070000003,
          "specularFactor": [
            0,
            0,
            0
          ]
        }
      },
      "name": "material"
    }
  ],
  "meshes": [
    {
      "name": "Material2",
      "primitives": [
        {
          "attributes": {
            "NORMAL": 1,
            "POSITION": 0
          },
          "indices": 2,
          "material": 0,
          "mode": 4
        }
      ]
    }
  ],
  "nodes": [
    {
      "children": [
        1
      ],
      "name": "RootNode (gltf orientation matrix)",
      "rotation": [
        -0.70710678118654746,
        -0,
        -0,
        0.70710678118654757
      ]
    },
    {
      "children": [
        2
      ],
      "name": "RootNode (model correction matrix)"
    },
    {
      "children": [
        3
      ],
      "name": "Collada visual scene group"
    },
    {
      "children": [
        6,
        4
      ],
      "name": "SketchUp"
    },
    {
      "children": [
        5
      ],
      "matrix": [
        -0.74173489999999997,
        0.67069319999999999,
        3.4694470000000004e-18,
        0,
        -0.037039910000000002,
        -0.040963279999999998,
        0.99847390000000003,
        0,
        0.66966959999999998,
        0.74060289999999995,
        0.055226299999999999,
        0,
        1184.7760000000001,
        1273.432,
        4.0614309999999998,
        1
      ],
      "name": "skp_camera_Last_Saved_SketchUp_View"
    },
    {
      "name": "ID1"
    },
    {
      "mesh": 0,
      "name": "Material2"
    }
  ],
  "scene": 0,
  "scenes": [
    {
      "name": "OSG_Scene",
      "nodes": [
        0
      ]
    }
  ]
}

